Coordinates
version=1
nRows=43
nColumns=12
inDegrees=yes

Units are S.I. units (second, meters, Newtons, ...)
Angles are in degrees

endheader
time	SC_y	SC_z	SC_x	AC_y	AC_z	AC_x	GH_y	GH_z	GH_yy	EL_x	PS_y
       0.0               -57.6          -1.26          8.783          41.43          -2.64          15.51          142.6          22.02         -38.41          129.0          6.536
    0.0351               -57.6          -1.26          8.789          41.43         -2.641          15.51          142.6          22.03         -38.38          129.0          6.555
   0.07021               -57.6          -1.26          8.796          41.43         -2.642          15.51          142.5          22.04         -38.35          129.0          6.576
    0.1053               -57.6         -1.259          8.803          41.43         -2.643          15.51          142.5          22.05         -38.32          129.0          6.599
    0.1404               -57.6         -1.259           8.81          41.43         -2.644          15.51          142.5          22.06         -38.28          129.0          6.622
    0.1755               -57.6         -1.259          8.818          41.43         -2.646          15.51          142.5          22.07         -38.25          129.0          6.648
    0.2106               -57.6         -1.258          8.827          41.42         -2.647          15.51          142.5          22.08         -38.21          129.0          6.675
    0.2457               -57.6         -1.258          8.836          41.42         -2.648          15.51          142.5          22.09         -38.16          128.9          6.703
    0.2808               -57.6         -1.258          8.846          41.42          -2.65          15.51          142.5           22.1         -38.12          128.9          6.734
    0.3159               -57.6         -1.257          8.857          41.42         -2.651          15.51          142.4          22.12         -38.07          128.9          6.767
     0.351               -57.6         -1.257          8.868          41.42         -2.653          15.51          142.4          22.13         -38.02          128.9          6.803
    0.3861               -57.6         -1.257           8.88          41.41         -2.655          15.51          142.4          22.15         -37.96          128.9          6.841
    0.4213               -57.6         -1.256          8.893          41.41         -2.656          15.51          142.4          22.16          -37.9          128.8          6.882
    0.4564               -57.6         -1.256          8.907          41.41         -2.658          15.51          142.3          22.18         -37.84          128.8          6.927
    0.4915               -57.6         -1.255          8.923           41.4         -2.661          15.51          142.3           22.2         -37.77          128.8          6.975
    0.5266               -57.6         -1.254          8.939           41.4         -2.663          15.51          142.3          22.22         -37.69          128.7          7.028
    0.5617               -57.6         -1.254          8.957           41.4         -2.666          15.51          142.2          22.25         -37.61          128.7          7.084
    0.5968               -57.6         -1.253          8.977          41.39         -2.669          15.51          142.2          22.27         -37.52          128.7          7.146
    0.6319               -57.6         -1.252          8.999          41.39         -2.672          15.51          142.2           22.3         -37.42          128.6          7.214
     0.667               -57.6         -1.251          9.022          41.39         -2.675          15.51          142.1          22.33         -37.32          128.6          7.288
    0.7021               -57.6          -1.25          9.048          41.38         -2.679          15.51          142.1          22.36          -37.2          128.5          7.369
    0.7372               -57.6         -1.249          9.077          41.37         -2.683          15.51          142.0           22.4         -37.07          128.5          7.459
    0.7723               -57.6         -1.248          9.108          41.37         -2.688          15.51          142.0          22.44         -36.93          128.4          7.558
    0.8074               -57.6         -1.247          9.143          41.36         -2.693          15.51          141.9          22.48         -36.77          128.3          7.667
    0.8425               -57.6         -1.246          9.182          41.35         -2.698          15.51          141.8          22.53         -36.59          128.3          7.789
    0.8776              -57.61         -1.244          9.225          41.35         -2.704          15.51          141.8          22.59         -36.39          128.2          7.925
    0.9127              -57.61         -1.242          9.273          41.34         -2.711          15.51          141.7          22.65         -36.17          128.1          8.077
    0.9478              -57.61          -1.24          9.328          41.33         -2.719          15.51          141.6          22.72         -35.93          128.0          8.248
    0.9829              -57.61         -1.238          9.389          41.31         -2.728          15.51          141.4           22.8         -35.65          127.9          8.441
     1.018              -57.61         -1.236          9.459           41.3         -2.738           15.5          141.3          22.89         -35.33          127.7          8.661
     1.053              -57.61         -1.233          9.539          41.28          -2.75           15.5          141.2          22.99         -34.96          127.6          8.912
     1.088              -57.61          -1.23           9.63          41.27         -2.763           15.5          141.0          23.11         -34.55          127.4          9.199
     1.123              -57.61         -1.226          9.736          41.25         -2.778           15.5          140.8          23.24         -34.07          127.2          9.532
     1.158              -57.61         -1.221          9.859          41.22         -2.796           15.5          140.6           23.4         -33.51          127.0          9.917
     1.194              -57.61         -1.216           10.0          41.19         -2.817           15.5          140.3          23.58         -32.85          126.7          10.37
     1.229              -57.61          -1.21          10.17          41.16         -2.841           15.5          140.0           23.8         -32.08          126.4           10.9
     1.264              -57.61         -1.203          10.37          41.12         -2.871           15.5          139.6          24.05         -31.16          126.0          11.53
     1.299              -57.61         -1.194          10.61          41.08         -2.905           15.5          139.2          24.36         -30.06          125.5          12.29
     1.334              -57.62         -1.184          10.91          41.02         -2.948           15.5          138.6          24.74         -28.73          124.9          13.21
     1.369              -57.62         -1.171          11.26          40.95         -2.999           15.5          138.0          25.19         -27.11          124.3          14.33
     1.404              -57.62         -1.155           11.7          40.86         -3.063           15.5          137.1          25.75         -25.11          123.4          15.71
     1.439              -57.62         -1.136          12.25          40.76         -3.142          15.49          136.1          26.45         -22.61          122.4          17.44
     1.474              -57.63         -1.111          12.94          40.62         -3.242          15.49          134.8          27.34         -19.46          121.0          19.61
